<svg width="24" height="25" viewBox="0 0 24 25" fill="none" xmlns="http://www.w3.org/2000/svg">
<g clip-path="url(#clip0_270_8578)">
<path d="M14.12 14.994C13.8454 15.2888 13.5141 15.5252 13.1462 15.6892C12.7782 15.8531 12.3809 15.9413 11.9781 15.9484C11.5753 15.9555 11.1752 15.8814 10.8016 15.7305C10.4281 15.5797 10.0887 15.3551 9.80385 15.0702C9.51897 14.7853 9.29439 14.446 9.14351 14.0724C8.99262 13.6989 8.91853 13.2988 8.92563 12.896C8.93274 12.4931 9.02091 12.0959 9.18488 11.7279C9.34884 11.3599 9.58525 11.0287 9.88 10.754M17.94 18.814C16.2306 20.1171 14.1491 20.8389 12 20.874C5 20.874 1 12.874 1 12.874C2.24389 10.5559 3.96914 8.53066 6.06 6.93405L17.94 18.814ZM9.9 5.11405C10.5883 4.95293 11.2931 4.87239 12 4.87405C19 4.87405 23 12.874 23 12.874C22.393 14.0097 21.6691 15.0788 20.84 16.064L9.9 5.11405Z" stroke="#62636C" stroke-width="1.6" stroke-linecap="round" stroke-linejoin="round"/>
<path d="M1 1.87402L23 23.874" stroke="#62636C" stroke-width="1.6" stroke-linecap="round" stroke-linejoin="round"/>
</g>
<defs>
<clipPath id="clip0_270_8578">
<rect width="24" height="24" fill="white" transform="translate(0 0.874023)"/>
</clipPath>
</defs>
</svg>
