<svg width="64" height="79" viewBox="0 0 64 79" fill="none" xmlns="http://www.w3.org/2000/svg">
<g clip-path="url(#clip0_1_721)">
<path d="M31.9999 2.62596e-05C28.5957 -0.159635 25.1957 0.393246 22.0175 1.62328C18.8392 2.85331 15.9529 4.73339 13.5431 7.14317C11.1333 9.55295 9.25321 12.4393 8.02318 15.6176C6.79315 18.7958 6.24027 22.1958 6.39993 25.6C6.39993 33.664 12.7999 41.6 15.9999 44.8C19.1999 48 31.9999 64 31.9999 64C31.9999 64 44.7999 48 47.9999 44.8C51.1999 41.6 57.5999 33.664 57.5999 25.6C57.7596 22.1958 57.2067 18.7958 55.9767 15.6176C54.7466 12.4393 52.8666 9.55295 50.4568 7.14317C48.047 4.73339 45.1606 2.85331 41.9824 1.62328C38.8042 0.393246 35.4041 -0.159635 31.9999 2.62596e-05ZM31.9999 36C29.943 36 27.9323 35.3901 26.222 34.2473C24.5117 33.1045 23.1787 31.4803 22.3916 29.5799C21.6044 27.6796 21.3985 25.5885 21.7998 23.5711C22.201 21.5537 23.1916 19.7006 24.646 18.2461C26.1005 16.7916 27.9536 15.8011 29.971 15.3999C31.9884 14.9986 34.0795 15.2045 35.9798 15.9917C37.8802 16.7788 39.5044 18.1118 40.6472 19.8221C41.79 21.5324 42.3999 23.5431 42.3999 25.6C42.3999 26.9658 42.1309 28.3181 41.6083 29.5799C41.0856 30.8417 40.3196 31.9882 39.3538 32.9539C38.3881 33.9197 37.2416 34.6857 35.9798 35.2084C34.7181 35.731 33.3657 36 31.9999 36Z" fill="#9661B0"/>
</g>
<circle cx="32" cy="75" r="4" fill="#9661B0"/>
<defs>
<clipPath id="clip0_1_721">
<rect width="64" height="64" fill="white"/>
</clipPath>
</defs>
</svg>
