<svg width="130" height="96" viewBox="0 0 130 96" fill="none" xmlns="http://www.w3.org/2000/svg">
<rect x="43" y="22" width="31.1127" height="31.1127" rx="3" transform="rotate(-45 43 22)" fill="#262525"/>
<circle cx="65.0488" cy="21.9999" r="12.5995" fill="#FCFCFC"/>
<rect x="57.1738" y="14.125" width="15.8614" height="15.8614" rx="3" fill="#262525"/>
<circle cx="65.0276" cy="21.9788" r="5.49048" fill="#FCFCFC"/>
<rect width="3.55887" height="3.55887" rx="1" transform="matrix(0.707081 -0.707133 0.707081 0.707133 62.6875 22)" fill="#262525"/>
<path d="M1.692 91V78.22H6.048C7.224 78.22 8.154 78.544 8.838 79.192C9.522 79.828 9.864 80.68 9.864 81.748C9.864 82.684 9.582 83.452 9.018 84.052C8.466 84.652 7.692 85.024 6.696 85.168L11.628 91H9.522L4.608 85.186H3.366V91H1.692ZM3.366 83.692H5.85C6.594 83.692 7.17 83.53 7.578 83.206C7.986 82.87 8.19 82.384 8.19 81.748C8.19 81.112 7.986 80.626 7.578 80.29C7.17 79.942 6.594 79.768 5.85 79.768H3.366V83.692ZM16.4541 91.18C15.1461 91.18 14.0601 90.736 13.1961 89.848C12.3441 88.96 11.9181 87.844 11.9181 86.5C11.9181 85.144 12.3321 84.028 13.1601 83.152C14.0001 82.264 15.1101 81.82 16.4901 81.82C17.8821 81.82 18.9741 82.312 19.7661 83.296C20.5581 84.28 20.9061 85.486 20.8101 86.914H13.4841C13.5081 87.73 13.8081 88.414 14.3841 88.966C14.9601 89.506 15.6561 89.776 16.4721 89.776C17.6961 89.776 18.5661 89.272 19.0821 88.264H20.6661C20.4381 89.104 19.9521 89.8 19.2081 90.352C18.4641 90.904 17.5461 91.18 16.4541 91.18ZM18.2181 83.836C17.7261 83.404 17.1321 83.188 16.4361 83.188C15.7401 83.188 15.1161 83.398 14.5641 83.818C14.0241 84.238 13.6881 84.862 13.5561 85.69H19.1721C19.0281 84.874 18.7101 84.256 18.2181 83.836ZM31.4679 94.762H29.9199V89.614C29.6079 90.07 29.1639 90.448 28.5879 90.748C28.0239 91.036 27.4119 91.18 26.7519 91.18C25.5039 91.18 24.4539 90.724 23.6019 89.812C22.7619 88.9 22.3419 87.796 22.3419 86.5C22.3419 85.204 22.7619 84.1 23.6019 83.188C24.4539 82.276 25.5039 81.82 26.7519 81.82C27.4119 81.82 28.0239 81.97 28.5879 82.27C29.1639 82.558 29.6079 82.93 29.9199 83.386V82H31.4679V94.762ZM26.9859 89.758C27.8739 89.758 28.6059 89.446 29.1819 88.822C29.7579 88.198 30.0459 87.424 30.0459 86.5C30.0459 85.576 29.7579 84.802 29.1819 84.178C28.6059 83.554 27.8739 83.242 26.9859 83.242C26.0859 83.242 25.3479 83.554 24.7719 84.178C24.1959 84.802 23.9079 85.576 23.9079 86.5C23.9079 87.424 24.1959 88.198 24.7719 88.822C25.3479 89.446 26.0859 89.758 26.9859 89.758ZM37.5678 91.18C36.5838 91.18 35.7858 90.85 35.1738 90.19C34.5618 89.518 34.2558 88.63 34.2558 87.526V82H35.8038V87.292C35.8038 88.048 35.9838 88.648 36.3438 89.092C36.7158 89.536 37.2138 89.758 37.8378 89.758C38.5578 89.758 39.1518 89.464 39.6198 88.876C40.0998 88.276 40.3398 87.472 40.3398 86.464V82H41.8878V91H40.3398V89.614C39.7518 90.658 38.8278 91.18 37.5678 91.18ZM48.6397 91.18C47.3317 91.18 46.2457 90.736 45.3817 89.848C44.5297 88.96 44.1037 87.844 44.1037 86.5C44.1037 85.144 44.5177 84.028 45.3457 83.152C46.1857 82.264 47.2957 81.82 48.6757 81.82C50.0677 81.82 51.1597 82.312 51.9517 83.296C52.7437 84.28 53.0917 85.486 52.9957 86.914H45.6697C45.6937 87.73 45.9937 88.414 46.5697 88.966C47.1457 89.506 47.8417 89.776 48.6577 89.776C49.8817 89.776 50.7517 89.272 51.2677 88.264H52.8517C52.6237 89.104 52.1377 89.8 51.3937 90.352C50.6497 90.904 49.7317 91.18 48.6397 91.18ZM50.4037 83.836C49.9117 83.404 49.3177 83.188 48.6217 83.188C47.9257 83.188 47.3017 83.398 46.7497 83.818C46.2097 84.238 45.8737 84.862 45.7417 85.69H51.3577C51.2137 84.874 50.8957 84.256 50.4037 83.836ZM58.1275 91.18C57.1195 91.18 56.2735 90.934 55.5895 90.442C54.9175 89.95 54.5455 89.266 54.4735 88.39H56.0575C56.1535 88.894 56.3935 89.266 56.7775 89.506C57.1735 89.746 57.6295 89.866 58.1455 89.866C58.6615 89.866 59.0755 89.764 59.3875 89.56C59.7115 89.356 59.8735 89.062 59.8735 88.678C59.8735 88.318 59.7535 88.024 59.5135 87.796C59.2855 87.568 58.9075 87.382 58.3795 87.238L57.0835 86.896C55.5355 86.488 54.7615 85.606 54.7615 84.25C54.7615 83.518 55.0495 82.93 55.6255 82.486C56.2135 82.042 56.9635 81.82 57.8755 81.82C58.7995 81.82 59.5555 82.066 60.1435 82.558C60.7435 83.038 61.0795 83.65 61.1515 84.394H59.6035C59.4835 83.998 59.2675 83.686 58.9555 83.458C58.6555 83.23 58.2955 83.116 57.8755 83.116C57.4315 83.116 57.0595 83.218 56.7595 83.422C56.4715 83.626 56.3275 83.896 56.3275 84.232C56.3275 84.556 56.4355 84.82 56.6515 85.024C56.8675 85.228 57.2155 85.396 57.6955 85.528L59.1355 85.906C60.6715 86.29 61.4395 87.178 61.4395 88.57C61.4395 89.434 61.1335 90.088 60.5215 90.532C59.9095 90.964 59.1115 91.18 58.1275 91.18ZM66.9832 91.09C66.1552 91.09 65.4892 90.856 64.9852 90.388C64.4812 89.92 64.2292 89.236 64.2292 88.336V83.422H62.3212V82H64.2292V79.498H65.7772V82H68.3692V83.422H65.7772V88.138C65.7772 88.702 65.8972 89.098 66.1372 89.326C66.3772 89.554 66.7552 89.668 67.2712 89.668C67.7272 89.668 68.0932 89.608 68.3692 89.488V90.874C67.9372 91.018 67.4752 91.09 66.9832 91.09ZM74.2643 91V78.93H78.3783C80.0783 78.93 81.5289 79.5193 82.7303 80.698C83.9316 81.8767 84.5323 83.299 84.5323 84.965C84.5323 86.631 83.9316 88.0533 82.7303 89.232C81.5289 90.4107 80.0783 91 78.3783 91H74.2643ZM76.9673 88.518H78.3783C79.3756 88.518 80.1916 88.178 80.8263 87.498C81.4723 86.8067 81.7953 85.9623 81.7953 84.965C81.7953 83.9677 81.4723 83.129 80.8263 82.449C80.1916 81.7577 79.3756 81.412 78.3783 81.412H76.9673V88.518ZM90.1906 91.187C88.8759 91.187 87.7936 90.7677 86.9436 89.929C86.1049 89.0903 85.6856 88.025 85.6856 86.733C85.6856 85.4637 86.1106 84.4097 86.9606 83.571C87.8219 82.7323 88.8986 82.313 90.1906 82.313C90.8139 82.313 91.3976 82.4207 91.9416 82.636C92.4969 82.8513 92.9843 83.163 93.4036 83.571C93.8343 83.979 94.1686 84.506 94.4066 85.152C94.6446 85.798 94.7523 86.529 94.7296 87.345H88.1846C88.2299 87.8097 88.4339 88.2007 88.7966 88.518C89.1593 88.824 89.6693 88.977 90.3266 88.977C90.7006 88.977 91.0406 88.9033 91.3466 88.756C91.6526 88.5973 91.8566 88.4047 91.9586 88.178H94.6446C94.3726 89.0733 93.8286 89.7987 93.0126 90.354C92.1966 90.9093 91.2559 91.187 90.1906 91.187ZM90.1226 84.353C89.6353 84.353 89.2273 84.4777 88.8986 84.727C88.5813 84.9763 88.3659 85.305 88.2526 85.713H91.8906C91.7659 85.2483 91.5336 84.9083 91.1936 84.693C90.8649 84.4663 90.5079 84.353 90.1226 84.353ZM99.7566 91.187C98.6232 91.187 97.6882 90.9093 96.9516 90.354C96.2262 89.7873 95.8409 89.079 95.7956 88.229H98.4986C98.5212 88.5577 98.6572 88.8127 98.9066 88.994C99.1559 89.164 99.4676 89.249 99.8416 89.249C100.476 89.249 100.794 89.0677 100.794 88.705C100.794 88.5237 100.72 88.3877 100.573 88.297C100.437 88.195 100.187 88.093 99.8246 87.991L98.1076 87.549C96.6796 87.175 95.9656 86.2853 95.9656 84.88C95.9656 84.1207 96.2829 83.503 96.9176 83.027C97.5522 82.551 98.4192 82.313 99.5186 82.313C100.493 82.313 101.304 82.5567 101.95 83.044C102.607 83.52 102.97 84.1943 103.038 85.067H100.454C100.352 84.5457 100.023 84.285 99.4676 84.285C98.8896 84.285 98.6006 84.4663 98.6006 84.829C98.6006 85.1463 98.8896 85.3673 99.4676 85.492L101.015 85.9C101.865 86.1267 102.477 86.4553 102.851 86.886C103.225 87.3167 103.412 87.8777 103.412 88.569C103.412 89.351 103.072 89.9857 102.392 90.473C101.712 90.949 100.833 91.187 99.7566 91.187ZM106.264 81.344C105.833 81.344 105.459 81.191 105.142 80.885C104.824 80.5677 104.666 80.188 104.666 79.746C104.666 79.304 104.824 78.93 105.142 78.624C105.459 78.3067 105.833 78.148 106.264 78.148C106.717 78.148 107.097 78.3067 107.403 78.624C107.72 78.93 107.879 79.304 107.879 79.746C107.879 80.188 107.72 80.5677 107.403 80.885C107.097 81.191 106.717 81.344 106.264 81.344ZM104.989 91V82.5H107.556V91H104.989ZM113.682 94.723C112.492 94.723 111.518 94.4113 110.758 93.788C110.01 93.176 109.602 92.3997 109.534 91.459H112.033C112.294 92.2183 112.866 92.598 113.75 92.598C114.226 92.598 114.629 92.445 114.957 92.139C115.286 91.8443 115.45 91.4137 115.45 90.847V89.844C115.246 90.15 114.935 90.3993 114.515 90.592C114.107 90.7847 113.648 90.881 113.138 90.881C112.05 90.881 111.115 90.4673 110.333 89.64C109.551 88.8013 109.16 87.787 109.16 86.597C109.16 85.407 109.551 84.3983 110.333 83.571C111.115 82.7323 112.05 82.313 113.138 82.313C113.648 82.313 114.107 82.4093 114.515 82.602C114.935 82.7947 115.246 83.044 115.45 83.35V82.5H118.017V90.473C118.017 91.2323 117.893 91.8953 117.643 92.462C117.405 93.0287 117.077 93.4707 116.657 93.788C116.249 94.1053 115.796 94.3377 115.297 94.485C114.799 94.6437 114.26 94.723 113.682 94.723ZM112.322 88.008C112.708 88.3707 113.167 88.552 113.699 88.552C114.232 88.552 114.691 88.3707 115.076 88.008C115.462 87.6453 115.654 87.175 115.654 86.597C115.654 86.019 115.462 85.5487 115.076 85.186C114.691 84.8233 114.232 84.642 113.699 84.642C113.167 84.642 112.708 84.8233 112.322 85.186C111.937 85.5487 111.744 86.019 111.744 86.597C111.744 87.175 111.937 87.6453 112.322 88.008ZM120.129 91V82.5H122.696V83.367C123.184 82.6643 123.971 82.313 125.059 82.313C126.091 82.313 126.895 82.6587 127.473 83.35C128.063 84.0413 128.357 84.9537 128.357 86.087V91H125.79V86.529C125.79 85.271 125.331 84.642 124.413 84.642C123.903 84.642 123.49 84.829 123.172 85.203C122.855 85.577 122.696 86.1323 122.696 86.869V91H120.129Z" fill="#262525"/>
<path d="M20.792 55.664C21.5173 56.3467 21.88 57.2107 21.88 58.256C21.88 59.3013 21.5173 60.1653 20.792 60.848C20.0773 61.52 19.1387 61.856 17.976 61.856H15.992V66H14.504V54.64H17.976C19.1387 54.64 20.0773 54.9813 20.792 55.664ZM19.752 59.856C20.1893 59.44 20.408 58.9067 20.408 58.256C20.408 57.6053 20.1893 57.072 19.752 56.656C19.3253 56.24 18.7333 56.032 17.976 56.032H15.992V60.48H17.976C18.7333 60.48 19.3253 60.272 19.752 59.856ZM26.7326 66.16C25.6233 66.16 24.69 65.7547 23.9326 64.944C23.186 64.1333 22.8126 63.152 22.8126 62C22.8126 60.848 23.186 59.8667 23.9326 59.056C24.69 58.2453 25.6233 57.84 26.7326 57.84C27.3193 57.84 27.8633 57.9733 28.3646 58.24C28.8766 58.496 29.2713 58.8267 29.5486 59.232V58H30.9246V66H29.5486V64.768C29.2713 65.1733 28.8766 65.5093 28.3646 65.776C27.8633 66.032 27.3193 66.16 26.7326 66.16ZM26.9406 64.896C27.73 64.896 28.3806 64.6187 28.8926 64.064C29.4046 63.5093 29.6606 62.8213 29.6606 62C29.6606 61.1787 29.4046 60.4907 28.8926 59.936C28.3806 59.3813 27.73 59.104 26.9406 59.104C26.1406 59.104 25.4846 59.3813 24.9726 59.936C24.4606 60.4907 24.2046 61.1787 24.2046 62C24.2046 62.8213 24.4606 63.5093 24.9726 64.064C25.4846 64.6187 26.1406 64.896 26.9406 64.896ZM36.0588 66.16C35.2374 66.16 34.5174 65.9573 33.8988 65.552C33.2908 65.1467 32.9121 64.576 32.7628 63.84H34.1548C34.4214 64.608 35.0561 64.992 36.0588 64.992C36.6454 64.992 37.0881 64.8693 37.3868 64.624C37.6854 64.3787 37.8348 64.0587 37.8348 63.664C37.8348 63.2693 37.6854 62.96 37.3868 62.736C37.0988 62.512 36.6828 62.4 36.1388 62.4H35.2108V61.28H36.1388C36.5761 61.28 36.9228 61.184 37.1788 60.992C37.4454 60.8 37.5788 60.5173 37.5788 60.144C37.5788 59.7813 37.4401 59.4987 37.1628 59.296C36.8854 59.0933 36.5121 58.992 36.0428 58.992C35.1148 58.992 34.5334 59.3653 34.2988 60.112H32.9388C33.0881 59.376 33.4508 58.816 34.0268 58.432C34.6028 58.0373 35.2801 57.84 36.0588 57.84C36.9548 57.84 37.6534 58.0533 38.1548 58.48C38.6561 58.896 38.9068 59.424 38.9068 60.064C38.9068 60.8427 38.5761 61.424 37.9148 61.808C38.7894 62.2027 39.2268 62.8587 39.2268 63.776C39.2268 64.448 38.9494 65.0133 38.3948 65.472C37.8401 65.9307 37.0614 66.16 36.0588 66.16ZM42.6408 69.344H41.2648V58H42.6408V59.232C42.9181 58.8267 43.3074 58.496 43.8088 58.24C44.3208 57.9733 44.8701 57.84 45.4568 57.84C46.5661 57.84 47.4941 58.2453 48.2408 59.056C48.9981 59.8667 49.3767 60.848 49.3767 62C49.3767 63.152 48.9981 64.1333 48.2408 64.944C47.4941 65.7547 46.5661 66.16 45.4568 66.16C44.8701 66.16 44.3208 66.032 43.8088 65.776C43.3074 65.5093 42.9181 65.1733 42.6408 64.768V69.344ZM43.2968 64.064C43.8088 64.6187 44.4594 64.896 45.2488 64.896C46.0381 64.896 46.6888 64.6187 47.2008 64.064C47.7128 63.5093 47.9688 62.8213 47.9688 62C47.9688 61.1787 47.7128 60.4907 47.2008 59.936C46.6888 59.3813 46.0381 59.104 45.2488 59.104C44.4594 59.104 43.8088 59.3813 43.2968 59.936C42.7848 60.4907 42.5288 61.1787 42.5288 62C42.5288 62.8213 42.7848 63.5093 43.2968 64.064ZM54.6545 66.16C53.5452 66.16 52.6118 65.7547 51.8545 64.944C51.1078 64.1333 50.7345 63.152 50.7345 62C50.7345 60.848 51.1078 59.8667 51.8545 59.056C52.6118 58.2453 53.5452 57.84 54.6545 57.84C55.2412 57.84 55.7852 57.9733 56.2865 58.24C56.7985 58.496 57.1932 58.8267 57.4705 59.232V58H58.8465V66H57.4705V64.768C57.1932 65.1733 56.7985 65.5093 56.2865 65.776C55.7852 66.032 55.2412 66.16 54.6545 66.16ZM54.8625 64.896C55.6518 64.896 56.3025 64.6187 56.8145 64.064C57.3265 63.5093 57.5825 62.8213 57.5825 62C57.5825 61.1787 57.3265 60.4907 56.8145 59.936C56.3025 59.3813 55.6518 59.104 54.8625 59.104C54.0625 59.104 53.4065 59.3813 52.8945 59.936C52.3825 60.4907 52.1265 61.1787 52.1265 62C52.1265 62.8213 52.3825 63.5093 52.8945 64.064C53.4065 64.6187 54.0625 64.896 54.8625 64.896ZM65.2766 66.16C64.018 66.16 63.01 65.744 62.2526 64.912C61.506 64.08 61.1326 62.9867 61.1326 61.632V60.816C61.1326 58.8533 61.4846 57.3867 62.1886 56.416C62.8926 55.4347 64.0446 54.7893 65.6446 54.48L68.6206 53.936V55.248L65.9486 55.744C64.8073 55.9467 63.9806 56.3307 63.4686 56.896C62.9673 57.4613 62.6526 58.2933 62.5246 59.392C63.218 58.464 64.1993 58 65.4686 58C66.674 58 67.6393 58.384 68.3646 59.152C69.1006 59.92 69.4686 60.8587 69.4686 61.968C69.4686 63.1413 69.0686 64.1333 68.2686 64.944C67.4793 65.7547 66.482 66.16 65.2766 66.16ZM63.2926 64.064C63.8046 64.608 64.466 64.88 65.2766 64.88C66.0873 64.88 66.754 64.608 67.2766 64.064C67.7993 63.52 68.0606 62.8213 68.0606 61.968C68.0606 61.168 67.7993 60.5173 67.2766 60.016C66.7646 59.504 66.1086 59.248 65.3086 59.248C64.4873 59.248 63.8153 59.5093 63.2926 60.032C62.7806 60.544 62.5246 61.1893 62.5246 61.968C62.5246 62.8213 62.7806 63.52 63.2926 64.064ZM74.9886 66.16C73.7833 66.16 72.7806 65.76 71.9806 64.96C71.1913 64.1493 70.7966 63.1627 70.7966 62C70.7966 60.8373 71.1913 59.856 71.9806 59.056C72.7806 58.2453 73.7833 57.84 74.9886 57.84C76.1833 57.84 77.1753 58.2453 77.9646 59.056C78.7646 59.856 79.1646 60.8373 79.1646 62C79.1646 63.1627 78.7646 64.1493 77.9646 64.96C77.1753 65.76 76.1833 66.16 74.9886 66.16ZM72.9726 64.048C73.4953 64.6027 74.1673 64.88 74.9886 64.88C75.81 64.88 76.4766 64.6027 76.9886 64.048C77.5006 63.4933 77.7566 62.8107 77.7566 62C77.7566 61.1893 77.5006 60.5067 76.9886 59.952C76.4766 59.3973 75.81 59.12 74.9886 59.12C74.1673 59.12 73.4953 59.3973 72.9726 59.952C72.4606 60.5067 72.2046 61.1893 72.2046 62C72.2046 62.8107 72.4606 63.4933 72.9726 64.048ZM82.441 66V59.264H79.897V58H86.473V59.264H83.817V66H82.441ZM91.1233 66.16C90.0139 66.16 89.0806 65.7547 88.3233 64.944C87.5766 64.1333 87.2033 63.152 87.2033 62C87.2033 60.848 87.5766 59.8667 88.3233 59.056C89.0806 58.2453 90.0139 57.84 91.1233 57.84C91.7099 57.84 92.2539 57.9733 92.7553 58.24C93.2673 58.496 93.6619 58.8267 93.9393 59.232V58H95.3153V66H93.9393V64.768C93.6619 65.1733 93.2673 65.5093 92.7553 65.776C92.2539 66.032 91.7099 66.16 91.1233 66.16ZM91.3313 64.896C92.1206 64.896 92.7713 64.6187 93.2833 64.064C93.7953 63.5093 94.0513 62.8213 94.0513 62C94.0513 61.1787 93.7953 60.4907 93.2833 59.936C92.7713 59.3813 92.1206 59.104 91.3313 59.104C90.5313 59.104 89.8753 59.3813 89.3633 59.936C88.8513 60.4907 88.5953 61.1787 88.5953 62C88.5953 62.8213 88.8513 63.5093 89.3633 64.064C89.8753 64.6187 90.5313 64.896 91.3313 64.896ZM97.9054 66V58H99.2814V61.296H103.649V58H105.025V66H103.649V62.544H99.2814V66H97.9054ZM111.176 66.16C109.971 66.16 108.968 65.76 108.168 64.96C107.379 64.1493 106.984 63.1627 106.984 62C106.984 60.8373 107.379 59.856 108.168 59.056C108.968 58.2453 109.971 57.84 111.176 57.84C112.371 57.84 113.363 58.2453 114.152 59.056C114.952 59.856 115.352 60.8373 115.352 62C115.352 63.1627 114.952 64.1493 114.152 64.96C113.363 65.76 112.371 66.16 111.176 66.16ZM109.16 64.048C109.683 64.6027 110.355 64.88 111.176 64.88C111.997 64.88 112.664 64.6027 113.176 64.048C113.688 63.4933 113.944 62.8107 113.944 62C113.944 61.1893 113.688 60.5067 113.176 59.952C112.664 59.3973 111.997 59.12 111.176 59.12C110.355 59.12 109.683 59.3973 109.16 59.952C108.648 60.5067 108.392 61.1893 108.392 62C108.392 62.8107 108.648 63.4933 109.16 64.048Z" fill="#929292"/>
</svg>
