<svg width="188" height="48" viewBox="0 0 188 48" fill="none" xmlns="http://www.w3.org/2000/svg">
<rect x="144" y="25.2148" width="31.1127" height="31.1127" rx="3" transform="rotate(-45 144 25.2148)" fill="#262525"/>
<circle cx="166.049" cy="25.2148" r="12.5995" fill="#FCFCFC"/>
<rect x="158.174" y="17.3403" width="15.8614" height="15.8614" rx="3" fill="#262525"/>
<circle cx="166.027" cy="25.1931" r="5.49048" fill="#FCFCFC"/>
<rect width="3.55887" height="3.55887" rx="1" transform="matrix(0.707081 -0.707133 0.707081 0.707133 163.687 25.2148)" fill="#262525"/>
<path d="M1.692 41V28.22H6.048C7.224 28.22 8.154 28.544 8.838 29.192C9.522 29.828 9.864 30.68 9.864 31.748C9.864 32.684 9.582 33.452 9.018 34.052C8.466 34.652 7.692 35.024 6.696 35.168L11.628 41H9.522L4.608 35.186H3.366V41H1.692ZM3.366 33.692H5.85C6.594 33.692 7.17 33.53 7.578 33.206C7.986 32.87 8.19 32.384 8.19 31.748C8.19 31.112 7.986 30.626 7.578 30.29C7.17 29.942 6.594 29.768 5.85 29.768H3.366V33.692ZM16.4541 41.18C15.1461 41.18 14.0601 40.736 13.1961 39.848C12.3441 38.96 11.9181 37.844 11.9181 36.5C11.9181 35.144 12.3321 34.028 13.1601 33.152C14.0001 32.264 15.1101 31.82 16.4901 31.82C17.8821 31.82 18.9741 32.312 19.7661 33.296C20.5581 34.28 20.9061 35.486 20.8101 36.914H13.4841C13.5081 37.73 13.8081 38.414 14.3841 38.966C14.9601 39.506 15.6561 39.776 16.4721 39.776C17.6961 39.776 18.5661 39.272 19.0821 38.264H20.6661C20.4381 39.104 19.9521 39.8 19.2081 40.352C18.4641 40.904 17.5461 41.18 16.4541 41.18ZM18.2181 33.836C17.7261 33.404 17.1321 33.188 16.4361 33.188C15.7401 33.188 15.1161 33.398 14.5641 33.818C14.0241 34.238 13.6881 34.862 13.5561 35.69H19.1721C19.0281 34.874 18.7101 34.256 18.2181 33.836ZM31.4679 44.762H29.9199V39.614C29.6079 40.07 29.1639 40.448 28.5879 40.748C28.0239 41.036 27.4119 41.18 26.7519 41.18C25.5039 41.18 24.4539 40.724 23.6019 39.812C22.7619 38.9 22.3419 37.796 22.3419 36.5C22.3419 35.204 22.7619 34.1 23.6019 33.188C24.4539 32.276 25.5039 31.82 26.7519 31.82C27.4119 31.82 28.0239 31.97 28.5879 32.27C29.1639 32.558 29.6079 32.93 29.9199 33.386V32H31.4679V44.762ZM26.9859 39.758C27.8739 39.758 28.6059 39.446 29.1819 38.822C29.7579 38.198 30.0459 37.424 30.0459 36.5C30.0459 35.576 29.7579 34.802 29.1819 34.178C28.6059 33.554 27.8739 33.242 26.9859 33.242C26.0859 33.242 25.3479 33.554 24.7719 34.178C24.1959 34.802 23.9079 35.576 23.9079 36.5C23.9079 37.424 24.1959 38.198 24.7719 38.822C25.3479 39.446 26.0859 39.758 26.9859 39.758ZM37.5678 41.18C36.5838 41.18 35.7858 40.85 35.1738 40.19C34.5618 39.518 34.2558 38.63 34.2558 37.526V32H35.8038V37.292C35.8038 38.048 35.9838 38.648 36.3438 39.092C36.7158 39.536 37.2138 39.758 37.8378 39.758C38.5578 39.758 39.1518 39.464 39.6198 38.876C40.0998 38.276 40.3398 37.472 40.3398 36.464V32H41.8878V41H40.3398V39.614C39.7518 40.658 38.8278 41.18 37.5678 41.18ZM48.6397 41.18C47.3317 41.18 46.2457 40.736 45.3817 39.848C44.5297 38.96 44.1037 37.844 44.1037 36.5C44.1037 35.144 44.5177 34.028 45.3457 33.152C46.1857 32.264 47.2957 31.82 48.6757 31.82C50.0677 31.82 51.1597 32.312 51.9517 33.296C52.7437 34.28 53.0917 35.486 52.9957 36.914H45.6697C45.6937 37.73 45.9937 38.414 46.5697 38.966C47.1457 39.506 47.8417 39.776 48.6577 39.776C49.8817 39.776 50.7517 39.272 51.2677 38.264H52.8517C52.6237 39.104 52.1377 39.8 51.3937 40.352C50.6497 40.904 49.7317 41.18 48.6397 41.18ZM50.4037 33.836C49.9117 33.404 49.3177 33.188 48.6217 33.188C47.9257 33.188 47.3017 33.398 46.7497 33.818C46.2097 34.238 45.8737 34.862 45.7417 35.69H51.3577C51.2137 34.874 50.8957 34.256 50.4037 33.836ZM58.1275 41.18C57.1195 41.18 56.2735 40.934 55.5895 40.442C54.9175 39.95 54.5455 39.266 54.4735 38.39H56.0575C56.1535 38.894 56.3935 39.266 56.7775 39.506C57.1735 39.746 57.6295 39.866 58.1455 39.866C58.6615 39.866 59.0755 39.764 59.3875 39.56C59.7115 39.356 59.8735 39.062 59.8735 38.678C59.8735 38.318 59.7535 38.024 59.5135 37.796C59.2855 37.568 58.9075 37.382 58.3795 37.238L57.0835 36.896C55.5355 36.488 54.7615 35.606 54.7615 34.25C54.7615 33.518 55.0495 32.93 55.6255 32.486C56.2135 32.042 56.9635 31.82 57.8755 31.82C58.7995 31.82 59.5555 32.066 60.1435 32.558C60.7435 33.038 61.0795 33.65 61.1515 34.394H59.6035C59.4835 33.998 59.2675 33.686 58.9555 33.458C58.6555 33.23 58.2955 33.116 57.8755 33.116C57.4315 33.116 57.0595 33.218 56.7595 33.422C56.4715 33.626 56.3275 33.896 56.3275 34.232C56.3275 34.556 56.4355 34.82 56.6515 35.024C56.8675 35.228 57.2155 35.396 57.6955 35.528L59.1355 35.906C60.6715 36.29 61.4395 37.178 61.4395 38.57C61.4395 39.434 61.1335 40.088 60.5215 40.532C59.9095 40.964 59.1115 41.18 58.1275 41.18ZM66.9832 41.09C66.1552 41.09 65.4892 40.856 64.9852 40.388C64.4812 39.92 64.2292 39.236 64.2292 38.336V33.422H62.3212V32H64.2292V29.498H65.7772V32H68.3692V33.422H65.7772V38.138C65.7772 38.702 65.8972 39.098 66.1372 39.326C66.3772 39.554 66.7552 39.668 67.2712 39.668C67.7272 39.668 68.0932 39.608 68.3692 39.488V40.874C67.9372 41.018 67.4752 41.09 66.9832 41.09ZM74.2643 41V28.93H78.3783C80.0783 28.93 81.5289 29.5193 82.7303 30.698C83.9316 31.8767 84.5323 33.299 84.5323 34.965C84.5323 36.631 83.9316 38.0533 82.7303 39.232C81.5289 40.4107 80.0783 41 78.3783 41H74.2643ZM76.9673 38.518H78.3783C79.3756 38.518 80.1916 38.178 80.8263 37.498C81.4723 36.8067 81.7953 35.9623 81.7953 34.965C81.7953 33.9677 81.4723 33.129 80.8263 32.449C80.1916 31.7577 79.3756 31.412 78.3783 31.412H76.9673V38.518ZM90.1906 41.187C88.8759 41.187 87.7936 40.7677 86.9436 39.929C86.1049 39.0903 85.6856 38.025 85.6856 36.733C85.6856 35.4637 86.1106 34.4097 86.9606 33.571C87.8219 32.7323 88.8986 32.313 90.1906 32.313C90.8139 32.313 91.3976 32.4207 91.9416 32.636C92.4969 32.8513 92.9843 33.163 93.4036 33.571C93.8343 33.979 94.1686 34.506 94.4066 35.152C94.6446 35.798 94.7523 36.529 94.7296 37.345H88.1846C88.2299 37.8097 88.4339 38.2007 88.7966 38.518C89.1593 38.824 89.6693 38.977 90.3266 38.977C90.7006 38.977 91.0406 38.9033 91.3466 38.756C91.6526 38.5973 91.8566 38.4047 91.9586 38.178H94.6446C94.3726 39.0733 93.8286 39.7987 93.0126 40.354C92.1966 40.9093 91.2559 41.187 90.1906 41.187ZM90.1226 34.353C89.6353 34.353 89.2273 34.4777 88.8986 34.727C88.5813 34.9763 88.3659 35.305 88.2526 35.713H91.8906C91.7659 35.2483 91.5336 34.9083 91.1936 34.693C90.8649 34.4663 90.5079 34.353 90.1226 34.353ZM99.7566 41.187C98.6232 41.187 97.6882 40.9093 96.9516 40.354C96.2262 39.7873 95.8409 39.079 95.7956 38.229H98.4986C98.5212 38.5577 98.6572 38.8127 98.9066 38.994C99.1559 39.164 99.4676 39.249 99.8416 39.249C100.476 39.249 100.794 39.0677 100.794 38.705C100.794 38.5237 100.72 38.3877 100.573 38.297C100.437 38.195 100.187 38.093 99.8246 37.991L98.1076 37.549C96.6796 37.175 95.9656 36.2853 95.9656 34.88C95.9656 34.1207 96.2829 33.503 96.9176 33.027C97.5522 32.551 98.4192 32.313 99.5186 32.313C100.493 32.313 101.304 32.5567 101.95 33.044C102.607 33.52 102.97 34.1943 103.038 35.067H100.454C100.352 34.5457 100.023 34.285 99.4676 34.285C98.8896 34.285 98.6006 34.4663 98.6006 34.829C98.6006 35.1463 98.8896 35.3673 99.4676 35.492L101.015 35.9C101.865 36.1267 102.477 36.4553 102.851 36.886C103.225 37.3167 103.412 37.8777 103.412 38.569C103.412 39.351 103.072 39.9857 102.392 40.473C101.712 40.949 100.833 41.187 99.7566 41.187ZM106.264 31.344C105.833 31.344 105.459 31.191 105.142 30.885C104.824 30.5677 104.666 30.188 104.666 29.746C104.666 29.304 104.824 28.93 105.142 28.624C105.459 28.3067 105.833 28.148 106.264 28.148C106.717 28.148 107.097 28.3067 107.403 28.624C107.72 28.93 107.879 29.304 107.879 29.746C107.879 30.188 107.72 30.5677 107.403 30.885C107.097 31.191 106.717 31.344 106.264 31.344ZM104.989 41V32.5H107.556V41H104.989ZM113.682 44.723C112.492 44.723 111.518 44.4113 110.758 43.788C110.01 43.176 109.602 42.3997 109.534 41.459H112.033C112.294 42.2183 112.866 42.598 113.75 42.598C114.226 42.598 114.629 42.445 114.957 42.139C115.286 41.8443 115.45 41.4137 115.45 40.847V39.844C115.246 40.15 114.935 40.3993 114.515 40.592C114.107 40.7847 113.648 40.881 113.138 40.881C112.05 40.881 111.115 40.4673 110.333 39.64C109.551 38.8013 109.16 37.787 109.16 36.597C109.16 35.407 109.551 34.3983 110.333 33.571C111.115 32.7323 112.05 32.313 113.138 32.313C113.648 32.313 114.107 32.4093 114.515 32.602C114.935 32.7947 115.246 33.044 115.45 33.35V32.5H118.017V40.473C118.017 41.2323 117.893 41.8953 117.643 42.462C117.405 43.0287 117.077 43.4707 116.657 43.788C116.249 44.1053 115.796 44.3377 115.297 44.485C114.799 44.6437 114.26 44.723 113.682 44.723ZM112.322 38.008C112.708 38.3707 113.167 38.552 113.699 38.552C114.232 38.552 114.691 38.3707 115.076 38.008C115.462 37.6453 115.654 37.175 115.654 36.597C115.654 36.019 115.462 35.5487 115.076 35.186C114.691 34.8233 114.232 34.642 113.699 34.642C113.167 34.642 112.708 34.8233 112.322 35.186C111.937 35.5487 111.744 36.019 111.744 36.597C111.744 37.175 111.937 37.6453 112.322 38.008ZM120.129 41V32.5H122.696V33.367C123.184 32.6643 123.971 32.313 125.059 32.313C126.091 32.313 126.895 32.6587 127.473 33.35C128.063 34.0413 128.357 34.9537 128.357 36.087V41H125.79V36.529C125.79 35.271 125.331 34.642 124.413 34.642C123.903 34.642 123.49 34.829 123.172 35.203C122.855 35.577 122.696 36.1323 122.696 36.869V41H120.129Z" fill="#262525"/>
<path d="M33.792 5.664C34.5173 6.34667 34.88 7.21067 34.88 8.256C34.88 9.30133 34.5173 10.1653 33.792 10.848C33.0773 11.52 32.1387 11.856 30.976 11.856H28.992V16H27.504V4.64H30.976C32.1387 4.64 33.0773 4.98133 33.792 5.664ZM32.752 9.856C33.1893 9.44 33.408 8.90667 33.408 8.256C33.408 7.60533 33.1893 7.072 32.752 6.656C32.3253 6.24 31.7333 6.032 30.976 6.032H28.992V10.48H30.976C31.7333 10.48 32.3253 10.272 32.752 9.856ZM39.7326 16.16C38.6233 16.16 37.69 15.7547 36.9326 14.944C36.186 14.1333 35.8126 13.152 35.8126 12C35.8126 10.848 36.186 9.86667 36.9326 9.056C37.69 8.24533 38.6233 7.84 39.7326 7.84C40.3193 7.84 40.8633 7.97333 41.3646 8.24C41.8766 8.496 42.2713 8.82667 42.5486 9.232V8H43.9246V16H42.5486V14.768C42.2713 15.1733 41.8766 15.5093 41.3646 15.776C40.8633 16.032 40.3193 16.16 39.7326 16.16ZM39.9406 14.896C40.73 14.896 41.3806 14.6187 41.8926 14.064C42.4046 13.5093 42.6606 12.8213 42.6606 12C42.6606 11.1787 42.4046 10.4907 41.8926 9.936C41.3806 9.38133 40.73 9.104 39.9406 9.104C39.1406 9.104 38.4846 9.38133 37.9726 9.936C37.4606 10.4907 37.2046 11.1787 37.2046 12C37.2046 12.8213 37.4606 13.5093 37.9726 14.064C38.4846 14.6187 39.1406 14.896 39.9406 14.896ZM49.0588 16.16C48.2374 16.16 47.5174 15.9573 46.8988 15.552C46.2908 15.1467 45.9121 14.576 45.7628 13.84H47.1548C47.4214 14.608 48.0561 14.992 49.0588 14.992C49.6454 14.992 50.0881 14.8693 50.3868 14.624C50.6854 14.3787 50.8348 14.0587 50.8348 13.664C50.8348 13.2693 50.6854 12.96 50.3868 12.736C50.0988 12.512 49.6828 12.4 49.1388 12.4H48.2108V11.28H49.1388C49.5761 11.28 49.9228 11.184 50.1788 10.992C50.4454 10.8 50.5788 10.5173 50.5788 10.144C50.5788 9.78133 50.4401 9.49867 50.1628 9.296C49.8854 9.09333 49.5121 8.992 49.0428 8.992C48.1148 8.992 47.5334 9.36533 47.2988 10.112H45.9388C46.0881 9.376 46.4508 8.816 47.0268 8.432C47.6028 8.03733 48.2801 7.84 49.0588 7.84C49.9548 7.84 50.6534 8.05333 51.1548 8.48C51.6561 8.896 51.9068 9.424 51.9068 10.064C51.9068 10.8427 51.5761 11.424 50.9148 11.808C51.7894 12.2027 52.2268 12.8587 52.2268 13.776C52.2268 14.448 51.9494 15.0133 51.3948 15.472C50.8401 15.9307 50.0614 16.16 49.0588 16.16ZM55.6408 19.344H54.2648V8H55.6408V9.232C55.9181 8.82667 56.3074 8.496 56.8088 8.24C57.3208 7.97333 57.8701 7.84 58.4568 7.84C59.5661 7.84 60.4941 8.24533 61.2408 9.056C61.9981 9.86667 62.3767 10.848 62.3767 12C62.3767 13.152 61.9981 14.1333 61.2408 14.944C60.4941 15.7547 59.5661 16.16 58.4568 16.16C57.8701 16.16 57.3208 16.032 56.8088 15.776C56.3074 15.5093 55.9181 15.1733 55.6408 14.768V19.344ZM56.2968 14.064C56.8088 14.6187 57.4594 14.896 58.2488 14.896C59.0381 14.896 59.6888 14.6187 60.2008 14.064C60.7128 13.5093 60.9688 12.8213 60.9688 12C60.9688 11.1787 60.7128 10.4907 60.2008 9.936C59.6888 9.38133 59.0381 9.104 58.2488 9.104C57.4594 9.104 56.8088 9.38133 56.2968 9.936C55.7848 10.4907 55.5288 11.1787 55.5288 12C55.5288 12.8213 55.7848 13.5093 56.2968 14.064ZM67.6545 16.16C66.5452 16.16 65.6118 15.7547 64.8545 14.944C64.1078 14.1333 63.7345 13.152 63.7345 12C63.7345 10.848 64.1078 9.86667 64.8545 9.056C65.6118 8.24533 66.5452 7.84 67.6545 7.84C68.2412 7.84 68.7852 7.97333 69.2865 8.24C69.7985 8.496 70.1932 8.82667 70.4705 9.232V8H71.8465V16H70.4705V14.768C70.1932 15.1733 69.7985 15.5093 69.2865 15.776C68.7852 16.032 68.2412 16.16 67.6545 16.16ZM67.8625 14.896C68.6518 14.896 69.3025 14.6187 69.8145 14.064C70.3265 13.5093 70.5825 12.8213 70.5825 12C70.5825 11.1787 70.3265 10.4907 69.8145 9.936C69.3025 9.38133 68.6518 9.104 67.8625 9.104C67.0625 9.104 66.4065 9.38133 65.8945 9.936C65.3825 10.4907 65.1265 11.1787 65.1265 12C65.1265 12.8213 65.3825 13.5093 65.8945 14.064C66.4065 14.6187 67.0625 14.896 67.8625 14.896ZM78.2766 16.16C77.018 16.16 76.01 15.744 75.2526 14.912C74.506 14.08 74.1326 12.9867 74.1326 11.632V10.816C74.1326 8.85333 74.4846 7.38667 75.1886 6.416C75.8926 5.43467 77.0446 4.78933 78.6446 4.48L81.6206 3.936V5.248L78.9486 5.744C77.8073 5.94667 76.9806 6.33067 76.4686 6.896C75.9673 7.46133 75.6526 8.29333 75.5246 9.392C76.218 8.464 77.1993 8 78.4686 8C79.674 8 80.6393 8.384 81.3646 9.152C82.1006 9.92 82.4686 10.8587 82.4686 11.968C82.4686 13.1413 82.0686 14.1333 81.2686 14.944C80.4793 15.7547 79.482 16.16 78.2766 16.16ZM76.2926 14.064C76.8046 14.608 77.466 14.88 78.2766 14.88C79.0873 14.88 79.754 14.608 80.2766 14.064C80.7993 13.52 81.0606 12.8213 81.0606 11.968C81.0606 11.168 80.7993 10.5173 80.2766 10.016C79.7646 9.504 79.1086 9.248 78.3086 9.248C77.4873 9.248 76.8153 9.50933 76.2926 10.032C75.7806 10.544 75.5246 11.1893 75.5246 11.968C75.5246 12.8213 75.7806 13.52 76.2926 14.064ZM87.9886 16.16C86.7833 16.16 85.7806 15.76 84.9806 14.96C84.1913 14.1493 83.7966 13.1627 83.7966 12C83.7966 10.8373 84.1913 9.856 84.9806 9.056C85.7806 8.24533 86.7833 7.84 87.9886 7.84C89.1833 7.84 90.1753 8.24533 90.9646 9.056C91.7646 9.856 92.1646 10.8373 92.1646 12C92.1646 13.1627 91.7646 14.1493 90.9646 14.96C90.1753 15.76 89.1833 16.16 87.9886 16.16ZM85.9726 14.048C86.4953 14.6027 87.1673 14.88 87.9886 14.88C88.81 14.88 89.4766 14.6027 89.9886 14.048C90.5006 13.4933 90.7566 12.8107 90.7566 12C90.7566 11.1893 90.5006 10.5067 89.9886 9.952C89.4766 9.39733 88.81 9.12 87.9886 9.12C87.1673 9.12 86.4953 9.39733 85.9726 9.952C85.4606 10.5067 85.2046 11.1893 85.2046 12C85.2046 12.8107 85.4606 13.4933 85.9726 14.048ZM95.441 16V9.264H92.897V8H99.473V9.264H96.817V16H95.441ZM104.123 16.16C103.014 16.16 102.081 15.7547 101.323 14.944C100.577 14.1333 100.203 13.152 100.203 12C100.203 10.848 100.577 9.86667 101.323 9.056C102.081 8.24533 103.014 7.84 104.123 7.84C104.71 7.84 105.254 7.97333 105.755 8.24C106.267 8.496 106.662 8.82667 106.939 9.232V8H108.315V16H106.939V14.768C106.662 15.1733 106.267 15.5093 105.755 15.776C105.254 16.032 104.71 16.16 104.123 16.16ZM104.331 14.896C105.121 14.896 105.771 14.6187 106.283 14.064C106.795 13.5093 107.051 12.8213 107.051 12C107.051 11.1787 106.795 10.4907 106.283 9.936C105.771 9.38133 105.121 9.104 104.331 9.104C103.531 9.104 102.875 9.38133 102.363 9.936C101.851 10.4907 101.595 11.1787 101.595 12C101.595 12.8213 101.851 13.5093 102.363 14.064C102.875 14.6187 103.531 14.896 104.331 14.896ZM110.905 16V8H112.281V11.296H116.649V8H118.025V16H116.649V12.544H112.281V16H110.905ZM124.176 16.16C122.971 16.16 121.968 15.76 121.168 14.96C120.379 14.1493 119.984 13.1627 119.984 12C119.984 10.8373 120.379 9.856 121.168 9.056C121.968 8.24533 122.971 7.84 124.176 7.84C125.371 7.84 126.363 8.24533 127.152 9.056C127.952 9.856 128.352 10.8373 128.352 12C128.352 13.1627 127.952 14.1493 127.152 14.96C126.363 15.76 125.371 16.16 124.176 16.16ZM122.16 14.048C122.683 14.6027 123.355 14.88 124.176 14.88C124.997 14.88 125.664 14.6027 126.176 14.048C126.688 13.4933 126.944 12.8107 126.944 12C126.944 11.1893 126.688 10.5067 126.176 9.952C125.664 9.39733 124.997 9.12 124.176 9.12C123.355 9.12 122.683 9.39733 122.16 9.952C121.648 10.5067 121.392 11.1893 121.392 12C121.392 12.8107 121.648 13.4933 122.16 14.048Z" fill="#929292"/>
</svg>
